<svg height="512" viewBox="0 0 512 512" width="512" xmlns="http://www.w3.org/2000/svg"><g><g><path d="m424 432h-336l40.845-176.994a40 40 0 0 1 38.976-31.006h176.358a40 40 0 0 1 38.976 31.006z" fill="#898890"/><path d="m16 432h480v32h-480z" fill="#5f4d37"/><path d="m32 464h448v24h-448z" fill="#957856"/><path d="m164 280h184a20 20 0 0 1 20 20v132a0 0 0 0 1 0 0h-224a0 0 0 0 1 0 0v-132a20 20 0 0 1 20-20z" fill="#e0e0e2"/><circle cx="256" cy="368" fill="#ffda44" r="24"/><path d="m176 120v-20a76.085 76.085 0 0 1 76-76h8a76.085 76.085 0 0 1 76 76v20z" fill="#ffda44"/><circle cx="232" cy="144" fill="#ffda44" r="8"/><circle cx="280" cy="144" fill="#ffda44" r="8"/><g fill="#ffdaaa"><path d="m312 120h24a0 0 0 0 1 0 0v32a16 16 0 0 1 -16 16h-8a0 0 0 0 1 0 0v-48a0 0 0 0 1 0 0z"/><path d="m176 120h24a0 0 0 0 1 0 0v48a0 0 0 0 1 0 0h-8a16 16 0 0 1 -16-16v-32a0 0 0 0 1 0 0z"/><path d="m216 224c0 17.67 17.91 32 40 32s40-14.33 40-32z"/><path d="m312 108v56a52 52 0 0 1 -52 52h-8a52 52 0 0 1 -52-52v-44s71.82 0 111.85-15.94c.1 1.3.15 2.61.15 3.94z"/><path d="m216 208h80v24h-80z"/><rect height="64" rx="20" transform="matrix(0 1 -1 0 480 304)" width="48" x="64" y="360"/></g><path d="m144 96v96h-64v40l-40-40h-24v-96z" fill="#ffeb99"/><path d="m352 160v96h80v40l40-40h24v-96z" fill="#ffeb99"/></g><g><path d="m256 336a32 32 0 1 0 32 32 32.036 32.036 0 0 0 -32-32zm0 48a16 16 0 1 1 16-16 16.019 16.019 0 0 1 -16 16z"/><circle cx="232" cy="136" r="8"/><circle cx="280" cy="136" r="8"/><path d="m248 184h16a8 8 0 0 0 0-16h-16a8 8 0 0 0 0 16z"/><path d="m16 200h20.687l37.656 37.657a8 8 0 0 0 13.657-5.657v-32h56a8 8 0 0 0 8-8v-96a8 8 0 0 0 -8-8h-128a8 8 0 0 0 -8 8v96a8 8 0 0 0 8 8zm8-96h112v80h-56a8 8 0 0 0 -8 8v20.687l-26.343-26.344a8 8 0 0 0 -5.657-2.343h-16z"/><path d="m40 128h80a8 8 0 0 0 0-16h-80a8 8 0 0 0 0 16z"/><path d="m40 152h80a8 8 0 0 0 0-16h-80a8 8 0 0 0 0 16z"/><path d="m72 176a8 8 0 0 0 0-16h-32a8 8 0 0 0 0 16z"/><path d="m104 160h-8a8 8 0 0 0 0 16h8a8 8 0 0 0 0-16z"/><path d="m428.94 303.39a8 8 0 0 0 8.72-1.73l37.65-37.66h20.69a8 8 0 0 0 8-8v-96a8 8 0 0 0 -8-8h-144a8 8 0 0 0 -8 8v56h-48v-12.03a60.117 60.117 0 0 0 22.79-35.97h1.21a24.032 24.032 0 0 0 24-24v-52a84.092 84.092 0 0 0 -84-84h-8a84.092 84.092 0 0 0 -84 84v52a24.032 24.032 0 0 0 24 24h1.21a60.117 60.117 0 0 0 22.79 35.97v12.03h-50.96a48.219 48.219 0 0 0 -47.79 43.5l-27.95 100.5h-13.3a28.031 28.031 0 0 0 -28 28v8a28.031 28.031 0 0 0 28 28h-60a8 8 0 0 0 -8 8v32a8 8 0 0 0 8 8h8v16a8 8 0 0 0 8 8h448a8 8 0 0 0 8-8v-16h8a8 8 0 0 0 8-8v-32a8 8 0 0 0 -8-8h-65.55l-34.76-160h28.31v32a8 8 0 0 0 4.94 7.39zm-100.94-159.39a8.011 8.011 0 0 1 -8 8v-32h8zm-136 8a8.011 8.011 0 0 1 -8-8v-24h8zm-8-48v-12a68.071 68.071 0 0 1 68-68h8a68.071 68.071 0 0 1 68 68v12h-8v-4c0-1.53-.06-3.06-.17-4.55a8 8 0 0 0 -10.94-6.82c-38.12 15.18-108.19 15.37-108.89 15.37zm24 52v-36.12c18.1-.45 62.86-2.58 96-12.63v48.75a44.052 44.052 0 0 1 -44 44h-8a44.052 44.052 0 0 1 -44-44zm72 56.56v11.44c0 8.96-3.12 24-24 24s-24-15.04-24-24v-11.44a59.723 59.723 0 0 0 20 3.44h8a59.723 59.723 0 0 0 20-3.44zm-216 183.44v-8a12.01 12.01 0 0 1 12-12h24a12.01 12.01 0 0 1 12 12v8a12.01 12.01 0 0 1 -12 12h-24a12.01 12.01 0 0 1 -12-12zm408 84h-432v-8h432zm16-40v16h-464v-16zm-336-16v-124a12.01 12.01 0 0 1 12-12h184a12.01 12.01 0 0 1 12 12v124zm262.08 0h-38.08v-124a28.031 28.031 0 0 0 -28-28h-184a28.031 28.031 0 0 0 -28 28v124h-36a28.031 28.031 0 0 0 28-28v-8a28.051 28.051 0 0 0 -22.26-27.41l27.13-97.52a7.911 7.911 0 0 0 .27-1.53 32.138 32.138 0 0 1 31.9-29.54h50.96c.21 0 .41-.02.61-.03 3.1 19.7 17.87 32.03 39.39 32.03s36.29-12.33 39.39-32.03c.2.01.4.03.61.03h48v24a8 8 0 0 0 8 8h27.32zm-54.08-176v-80h128v80h-16a8.008 8.008 0 0 0 -5.66 2.34l-26.34 26.35v-20.69a8 8 0 0 0 -8-8z"/><path d="m376 192h96a8 8 0 0 0 0-16h-96a8 8 0 0 0 0 16z"/><path d="m376 216h96a8 8 0 0 0 0-16h-96a8 8 0 0 0 0 16z"/><path d="m424 224h-48a8 8 0 0 0 0 16h48a8 8 0 0 0 0-16z"/><path d="m456 224h-8a8 8 0 0 0 0 16h8a8 8 0 0 0 0-16z"/></g></g></svg>