<?xml version="1.0" encoding="iso-8859-1"?>
<!-- Generator: Adobe Illustrator 19.0.0, SVG Export Plug-In . SVG Version: 6.00 Build 0)  -->
<svg version="1.1" id="Capa_1" xmlns="http://www.w3.org/2000/svg" xmlns:xlink="http://www.w3.org/1999/xlink" x="0px" y="0px"
	 viewBox="0 0 512 512" style="enable-background:new 0 0 512 512;" xml:space="preserve">
<g>
	<path style="fill:#5A54E0;" d="M294.5,105.996h-77v-3.503c0-21.263,17.237-38.5,38.5-38.5l0,0c21.263,0,38.5,17.237,38.5,38.5
		V105.996z"/>
	<polygon style="fill:#5A54E0;" points="437,501.996 75,501.996 53,461.996 459,461.996 	"/>
</g>
<path style="fill:#72D8FF;" d="M482,105.996H30c-11.046,0-20,8.954-20,20v316c0,11.046,8.954,20,20,20h452c11.046,0,20-8.954,20-20
	v-316C502,114.951,493.046,105.996,482,105.996z"/>
<path style="fill:#FFFFFF;" d="M217.958,409.931H346c13.255,0,24-10.745,24-24V181.996c0-13.255-10.745-24-24-24H74
	c-13.255,0-24,10.745-24,24V385.93c0,13.255,10.745,24,24,24h40.391h103.567V409.931z"/>
<g>
	<rect x="114" y="158" style="fill:#FFC66C;" width="64" height="248"/>
	<rect x="306" y="161" style="fill:#FFC66C;" width="64" height="248"/>
</g>
<rect x="242" y="161" style="fill:#FF5D5D;" width="64" height="248"/>
<rect x="178" y="161" style="fill:#36D28F;" width="64" height="248"/>
<rect x="50" y="161" style="fill:#FF5D5D;" width="64" height="248"/>
<g>
	<circle style="fill:#FFC66C;" cx="436" cy="385.93" r="24"/>
	<circle style="fill:#FFC66C;" cx="436" cy="294.95" r="24"/>
</g>
<path d="M40,181.996v203.935c0,18.748,15.252,34,34,34h272c18.748,0,34-15.252,34-34V181.996c0-18.748-15.252-34-34-34H74
	C55.252,147.996,40,163.249,40,181.996z M168,399.931h-44V167.996h44V399.931z M188,167.996h44v231.935h-44V167.996z M360,181.996
	v203.935c0,7.72-6.28,14-14,14h-94V167.996h44v160.997c0,5.523,4.477,10,10,10s10-4.477,10-10V167.996h30
	C353.72,167.996,360,174.277,360,181.996z M60,181.996c0-7.72,6.28-14,14-14h30v231.935H74c-7.72,0-14-6.28-14-14V181.996z"/>
<path d="M482,95.996H304.052c-1.027-7.634-3.827-14.712-7.986-20.797l58.125-58.124c3.905-3.905,3.906-10.237,0-14.142
	c-3.906-3.906-10.237-3.905-14.142,0l-58.416,58.415c-7.443-4.654-16.227-7.354-25.633-7.354c-9.442,0-18.256,2.722-25.717,7.408
	l-39.596-39.596c-3.905-3.905-10.237-3.905-14.143,0c-3.905,3.905-3.905,10.237,0,14.143l39.331,39.331
	c-4.128,6.067-6.906,13.117-7.929,20.716h-72.281c-5.523,0-10,4.477-10,10s4.477,10,10,10H482c5.514,0,10,4.486,10,10v316
	c0,5.514-4.486,10-10,10H30c-5.514,0-10-4.486-10-10v-316c0-5.514,4.486-10,10-10h21c5.523,0,10-4.477,10-10s-4.477-10-10-10H30
	c-16.542,0-30,13.458-30,30v316c0,16.542,13.458,30,30,30h17.087l19.151,34.819c1.758,3.195,5.115,5.181,8.762,5.181h362
	c3.647,0,7.004-1.985,8.762-5.181l19.151-34.819H482c16.542,0,30-13.458,30-30v-316C512,109.454,498.542,95.996,482,95.996z
	 M228.247,95.996C231.194,83.4,242.519,73.993,256,73.993c13.481,0,24.806,9.407,27.753,22.003H228.247z M431.087,491.996H80.913
	l-11-20h372.175L431.087,491.996z"/>
<path d="M95.67,115.993c2.63,0,5.21-1.06,7.07-2.93c1.86-1.86,2.93-4.44,2.93-7.07s-1.07-5.2-2.93-7.07
	c-1.86-1.86-4.44-2.93-7.07-2.93s-5.21,1.07-7.07,2.93c-1.87,1.86-2.93,4.44-2.93,7.07c0,2.64,1.06,5.21,2.93,7.07
	C90.46,114.933,93.04,115.993,95.67,115.993z"/>
<path d="M436,419.931c18.748,0,34-15.252,34-34s-15.252-34-34-34s-34,15.252-34,34S417.252,419.931,436,419.931z M436,371.931
	c7.72,0,14,6.28,14,14s-6.28,14-14,14s-14-6.28-14-14S428.28,371.931,436,371.931z"/>
<path d="M436,328.949c18.748,0,34-15.252,34-34s-15.252-34-34-34s-34,15.252-34,34S417.252,328.949,436,328.949z M436,280.949
	c7.72,0,14,6.28,14,14s-6.28,14-14,14s-14-6.28-14-14S428.28,280.949,436,280.949z"/>
<path d="M306,358.993c-2.63,0-5.21,1.07-7.07,2.93c-1.86,1.86-2.93,4.44-2.93,7.07s1.07,5.21,2.93,7.07
	c1.86,1.86,4.44,2.93,7.07,2.93s5.21-1.07,7.07-2.93s2.93-4.44,2.93-7.07s-1.07-5.21-2.93-7.07
	C311.21,360.063,308.63,358.993,306,358.993z"/>
<path d="M412,242.993h51c5.523,0,10-4.477,10-10s-4.477-10-10-10h-51c-5.523,0-10,4.477-10,10S406.477,242.993,412,242.993z"/>
<path d="M412,202.972h51c5.523,0,10-4.477,10-10s-4.477-10-10-10h-51c-5.523,0-10,4.477-10,10S406.477,202.972,412,202.972z"/>
<path d="M412,162.951h51c5.523,0,10-4.477,10-10s-4.477-10-10-10h-51c-5.523,0-10,4.477-10,10S406.477,162.951,412,162.951z"/>
<g>
</g>
<g>
</g>
<g>
</g>
<g>
</g>
<g>
</g>
<g>
</g>
<g>
</g>
<g>
</g>
<g>
</g>
<g>
</g>
<g>
</g>
<g>
</g>
<g>
</g>
<g>
</g>
<g>
</g>
</svg>
