<?xml version="1.0" encoding="iso-8859-1"?>
<!-- Generator: Adobe Illustrator 19.0.0, SVG Export Plug-In . SVG Version: 6.00 Build 0)  -->
<svg version="1.1" id="Capa_1" xmlns="http://www.w3.org/2000/svg" xmlns:xlink="http://www.w3.org/1999/xlink" x="0px" y="0px"
	 viewBox="0 0 465.1 465.1" style="enable-background:new 0 0 465.1 465.1;" xml:space="preserve">
<g>
	<circle style="fill:#ED664C;" cx="392.55" cy="375.3" r="30"/>
	<path style="fill:#ED664C;" d="M414.35,187.1c0,18.8-7.6,35.6-19.8,47.8c-12.2,12.2-29,19.8-47.8,19.8h-21.9
		c2.5-8.6,3.9-17.6,3.9-27c0-53.1-43.1-96.2-96.2-96.2s-96.2,43.1-96.2,96.2c0,9.4,1.3,18.4,3.8,26.9l-0.3,0.1h-21.5
		c-37.1,0-67.7-30-67.7-67.6c0-18.8,7.6-35.6,19.8-47.8c5.6-5.6,12.2-10.2,19.8-13.7c10.2-33.1,40.7-57.5,76.8-57.5
		c5.6,0,11.2,0.5,16.3,1.5c16.3-35.1,51.4-59.5,92.6-59.5c56.4,0,101.7,45.8,101.7,101.7c0,5.1-0.5,9.7-1,14.8
		C399.15,137.8,414.35,160.6,414.35,187.1z"/>
</g>
<path style="fill:#FDC75B;" d="M312.55,281.1c-17.2,25.8-46.6,42.8-80,42.8c-43.8,0-80.7-29.2-92.3-69.2c-2.5-8.5-3.8-17.6-3.8-26.9
	c0-53.1,43.1-96.2,96.2-96.2s96.2,43.1,96.2,96.2c0,9.4-1.3,18.5-3.9,27C322.05,264.2,317.95,273.1,312.55,281.1z"/>
<g>
	<circle style="fill:#ED664C;" cx="232.55" cy="425.3" r="30"/>
	<circle style="fill:#ED664C;" cx="72.55" cy="375.3" r="30"/>
</g>
<path d="M392.55,335.5c-18.6,0-34.3,12.2-38.7,30.2h-11.3c-11,0-20-9.4-20-20.4V284c3.8-6.1,7-12.3,9.5-19.3h14.6
	c20.7,0,40.2-8.1,54.9-22.8c14.7-14.7,22.8-34.2,22.8-54.9c0-27.2-14-51.9-37.1-66.1c0.3-3,0.4-6,0.4-9.2
	c0-61.6-50.1-111.7-111.7-111.7c-21.8,0-43,6.3-61.1,18.2c-15.5,10.2-28.2,24-37.1,40.3c-3.5-0.4-7-0.6-10.6-0.6
	c-19.7,0-38.4,6.4-54.2,18.4c-14,10.7-24.8,25.5-30.8,42c-7,3.7-13.3,8.4-18.7,13.8c-14.7,14.7-22.8,34.2-22.8,54.9
	c0,42.8,34.8,77.6,77.7,77.6h14.7c2.5,7,5.7,13.2,9.5,19.3v61.3c0,11-9,20.4-20,20.4h-11.3c-4.5-18-20.1-30.2-38.7-30.2
	c-22.1,0-40,17.8-40,39.9s17.9,40.1,40,40.1c18.6,0,34.3-12.9,38.7-29.9h11.3c22.1,0,40-18.3,40-40.4v-37.8c1.9,1.6,3.8,3.2,5.7,4.7
	c15.9,12.1,34.5,19.4,54.3,21.2v53.2c-17.2,4.5-30,20.1-30,38.7c0,22.1,17.9,40,40,40s40-17.9,40-40c0-18.6-12.8-34.3-30-38.7v-53.2
	c22.4-2.1,43.3-11.2,60-25.9v37.8c0,22.1,17.9,40.4,40,40.4h11.3c4.5,17,20.1,29.8,38.7,29.8c22.1,0,40-17.9,40-40
	S414.65,335.5,392.55,335.5z M72.55,395.3c-11,0-20-9-20-20s9-20,20-20s20,9,20,20S83.55,395.3,72.55,395.3z M60.75,187.1
	c0-15.4,6-29.8,16.9-40.7c4.7-4.7,10.5-8.7,17-11.7l4-1.9l1.3-4.2c9.1-29.7,36.8-50.4,67.2-50.4c5,0,10,0.5,14.3,1.3l7.7,1.6
	l3.3-7.1c7.4-15.8,18.9-29.2,33.4-38.8c14.9-9.8,32.2-15,50.1-15c50.6,0,91.7,41.1,91.7,91.7c0,4.1-0.4,8-0.8,12.5l-0.8,8.1l6.2,3.1
	c19.8,9.9,32.1,29.7,32.1,51.6c0,15.4-6,29.8-16.9,40.7c-10.9,10.8-25.4,16.8-40.7,16.8h-9.4c0.9-6,1.4-11.3,1.4-17
	c0-58.5-47.6-106.2-106.2-106.2s-106.2,47.6-106.2,106.2c0,5.7,0.5,11,1.4,17h-9.4C86.55,244.7,60.75,218.9,60.75,187.1z
	 M252.55,425.3c0,11-9,20-20,20s-20-9-20-20s9-20,20-20S252.55,414.3,252.55,425.3z M232.55,313.9c-38.1,0-72.1-25.5-82.7-62l0,0
	c-2.3-7.8-3.4-15.9-3.4-24.1c0-47.5,38.7-86.2,86.2-86.2s86.2,38.7,86.2,86.2c0,8.3-1.2,16.4-3.5,24.2c-2.4,8.4-6.1,16.3-11,23.6
	C288.15,299.5,261.35,313.9,232.55,313.9z M392.55,395.3c-11,0-20-9-20-20s9-20,20-20s20,9,20,20S403.55,395.3,392.55,395.3z"/>
<path d="M239.35,182.3c-3.8-3.6-9.8-3.6-13.6,0l-31.5,29.3c-4,3.8-4.3,10.1-0.5,14.1s10.1,4.3,14.1,0.5l14.7-13.6v53.1
	c0,5.5,4.5,10,10,10c5.5,0,10-4.5,10-10v-53.1l14.7,13.6c1.9,1.8,4.4,2.7,6.8,2.7c2.7,0,5.4-1.1,7.3-3.2c3.8-4,3.5-10.4-0.5-14.1
	L239.35,182.3z"/>
<g>
</g>
<g>
</g>
<g>
</g>
<g>
</g>
<g>
</g>
<g>
</g>
<g>
</g>
<g>
</g>
<g>
</g>
<g>
</g>
<g>
</g>
<g>
</g>
<g>
</g>
<g>
</g>
<g>
</g>
</svg>
